<?xml version="1.0" standalone="no"?>
<!DOCTYPE svg PUBLIC "-//W3C//DTD SVG 20010904//EN"
 "http://www.w3.org/TR/2001/REC-SVG-20010904/DTD/svg10.dtd">
<svg version="1.0" xmlns="http://www.w3.org/2000/svg"
 width="500.000000pt" height="362.000000pt" viewBox="0 0 500.000000 362.000000"
 preserveAspectRatio="xMidYMid meet">
<metadata>
Created by potrace 1.15, written by Peter Selinger 2001-2017
</metadata>
<g transform="translate(0.000000,362.000000) scale(0.100000,-0.100000)"
fill="#000000" stroke="none">
<path d="M3532 3583 c1 -29 -5 -41 -28 -61 -16 -14 -33 -39 -39 -55 -9 -25
-16 -30 -48 -32 -21 -1 -43 -7 -50 -14 -9 -10 -6 -10 16 -2 37 14 34 8 -15
-28 -23 -17 -39 -31 -35 -31 4 0 20 9 35 20 32 24 102 38 102 22 0 -7 -18 -21
-39 -31 -21 -11 -50 -34 -62 -51 -62 -80 -82 -99 -111 -106 -30 -6 -31 -7 -13
-20 17 -12 17 -15 3 -31 -26 -29 -58 -100 -58 -128 0 -20 5 -25 25 -25 20 0
25 5 25 25 0 34 23 86 46 106 11 9 36 20 57 23 81 15 117 50 117 114 0 17 9
37 24 51 24 22 24 22 57 4 l34 -18 -31 -3 c-20 -2 -35 -11 -42 -25 -21 -44
-37 -92 -34 -103 4 -20 -55 -74 -81 -74 -42 0 -66 -29 -71 -88 -6 -61 -11 -72
-33 -72 -12 0 -13 3 -4 14 6 8 14 38 18 67 3 30 11 60 17 68 6 8 39 27 73 42
34 16 64 33 68 39 9 14 8 14 -75 -29 -80 -41 -100 -64 -100 -121 0 -20 -7 -46
-16 -59 -14 -19 -14 -25 -3 -32 8 -5 24 -9 35 -9 17 0 23 8 28 38 3 20 6 49 6
65 0 34 32 67 66 67 23 0 25 -3 22 -42 -2 -36 -8 -45 -31 -56 -33 -16 -42 -34
-30 -57 14 -24 99 86 119 152 17 57 31 74 40 48 7 -18 -18 -78 -82 -195 -22
-41 -58 -109 -79 -150 -22 -41 -53 -97 -71 -125 -61 -97 -226 -396 -221 -401
5 -5 56 77 145 231 55 96 307 566 315 588 7 20 77 25 77 5 0 -14 -63 -116
-201 -325 -59 -89 -124 -192 -145 -230 -40 -75 -61 -109 -119 -196 -21 -31
-36 -60 -33 -63 8 -7 67 80 143 211 109 186 311 505 320 505 3 0 -4 -18 -16
-41 -18 -37 -19 -46 -9 -91 12 -50 32 -70 52 -50 7 7 7 20 0 40 -15 45 3 118
47 186 34 54 38 68 37 119 -1 60 10 69 31 26 19 -36 16 -74 -8 -95 -65 -57
-78 -194 -19 -194 27 0 35 18 16 39 -26 28 -19 56 25 101 39 40 41 45 35 89
-5 43 -5 45 10 26 20 -26 12 -77 -20 -124 -22 -32 -25 -45 -22 -111 2 -72 3
-75 27 -75 20 0 24 4 21 28 -2 24 1 27 25 27 25 0 28 4 31 37 1 23 12 47 27
63 38 39 47 81 27 122 -14 27 -63 65 -107 81 -5 3 -7 8 -3 12 4 4 33 -5 64
-20 90 -44 113 -104 77 -205 -23 -65 -10 -99 36 -92 27 4 45 22 22 22 -21 0
-21 52 0 100 16 37 20 63 17 100 -7 67 -34 96 -107 111 -46 9 -64 20 -103 60
-48 50 -61 53 -125 33 -21 -6 -15 15 12 41 13 14 32 25 42 25 10 0 45 -25 78
-56 45 -43 54 -55 35 -49 -21 6 -23 5 -12 -6 13 -14 126 -18 139 -6 3 4 6 26
5 49 -3 55 -31 84 -101 105 -31 8 -77 31 -104 49 -78 54 -124 44 -152 -31 -10
-25 -21 -45 -25 -45 -12 0 -60 41 -60 51 0 6 11 25 25 43 36 47 50 93 35 111
-23 27 -39 18 -38 -22z m168 -93 c5 0 21 -11 37 -24 15 -12 58 -33 94 -45 78
-26 98 -44 105 -97 3 -27 2 -33 -4 -20 -8 19 -127 93 -219 137 -51 24 -76 15
-97 -34 l-14 -32 -1 27 c-2 54 41 104 77 92 8 -2 17 -4 22 -4z"/>
<path d="M2695 3397 c-5 -23 -11 -34 -20 -31 -8 3 -16 -8 -23 -33 l-10 -38 -2
45 -2 45 -13 -58 c-7 -32 -14 -60 -17 -62 -2 -2 -3 26 -2 63 l3 67 -12 -80
c-7 -44 -10 -99 -9 -122 4 -40 7 -43 40 -52 68 -18 122 -24 122 -13 0 5 -27
13 -60 17 -63 7 -93 25 -84 50 9 23 65 28 218 22 148 -6 252 -27 274 -55 11
-14 12 -14 12 6 0 12 10 40 21 62 12 23 19 43 16 46 -3 3 -13 -8 -22 -26 -24
-46 -30 -29 -10 25 25 64 13 67 -15 3 -12 -29 -24 -48 -27 -41 -2 6 3 27 12
45 l16 33 -20 -25 c-22 -27 -28 -21 -10 12 6 11 8 22 5 25 -2 3 -12 -12 -20
-32 -18 -42 -20 -57 -6 -35 7 10 10 11 10 2 0 -13 -27 -28 -36 -20 -2 3 5 26
17 52 11 26 19 52 16 59 -2 6 -14 -15 -27 -46 -13 -31 -27 -57 -32 -57 -5 0
-2 13 7 30 8 16 15 37 15 47 -1 10 -13 -4 -27 -32 -27 -52 -43 -48 -24 7 6 17
9 33 6 36 -2 3 -7 -1 -9 -9 -21 -57 -27 -69 -36 -69 -12 0 -13 -6 4 59 17 63
8 59 -15 -7 -14 -42 -19 -47 -49 -50 -47 -5 -54 7 -36 67 8 28 11 49 6 46 -4
-3 -10 1 -13 7 -3 7 -14 -7 -26 -32 -22 -44 -22 -44 -16 -10 4 19 9 44 11 55
4 16 3 17 -4 5 -6 -8 -15 -41 -22 -72 -6 -32 -16 -58 -22 -58 -5 0 -7 7 -4 16
3 9 8 34 11 57 l5 42 -17 -52 c-10 -28 -22 -55 -27 -60 -5 -5 -6 0 -2 12 4 10
9 40 12 65 l4 45 -19 -50 c-21 -54 -27 -36 -10 34 5 24 8 46 5 48 -3 3 -8 -11
-11 -30z"/>
<path d="M1680 3285 c-18 -37 -20 -51 -11 -75 12 -35 8 -36 -63 -15 -27 8 -70
15 -96 15 -82 0 -94 -48 -20 -77 41 -17 53 -33 23 -33 -25 0 -293 -92 -293
-101 0 -14 31 -18 172 -20 94 -2 150 1 163 9 16 9 -15 12 -140 12 -95 0 -154
4 -145 9 8 5 63 25 123 46 106 36 178 45 227 30 17 -5 22 -4 15 3 -5 6 -47 22
-92 37 -67 21 -83 30 -83 46 0 28 20 32 100 20 74 -12 116 -28 144 -56 22 -23
20 -6 -4 30 -11 17 -20 43 -20 58 0 35 27 90 43 84 19 -6 57 -88 57 -124 0
-22 4 -32 11 -28 25 16 -40 175 -72 175 -11 0 -26 -17 -39 -45z"/>
<path d="M1978 3262 c-68 -45 -148 -118 -148 -135 0 -7 12 3 26 21 25 32 158
132 176 132 20 0 3 -26 -67 -99 -65 -67 -88 -101 -70 -101 2 0 21 11 41 25 39
26 136 59 155 53 6 -2 -9 -23 -32 -47 l-44 -43 30 6 c17 3 52 9 79 12 62 9 60
-10 -5 -45 -79 -43 -92 -52 -81 -63 6 -6 47 -2 116 11 113 22 326 29 326 11 0
-13 -57 -27 -158 -39 -89 -11 -162 -30 -162 -41 0 -4 59 -10 131 -14 173 -8
231 -38 163 -82 -21 -14 -48 -17 -145 -16 -66 1 -118 -2 -115 -7 3 -4 76 -11
163 -14 205 -8 284 -29 239 -63 -26 -19 -146 -18 -281 2 -117 17 -184 15 -95
-3 30 -7 72 -14 94 -18 43 -7 89 -47 84 -73 -5 -26 -139 -21 -201 7 -50 23
-67 26 -67 12 0 -5 18 -16 39 -25 39 -15 59 -45 45 -67 -4 -8 -26 -10 -62 -6
-43 5 -60 12 -78 32 -19 23 -21 31 -12 63 6 20 7 60 4 88 -6 54 -42 151 -52
141 -3 -3 1 -18 10 -35 8 -16 20 -60 26 -96 9 -60 8 -72 -10 -113 -11 -25 -42
-76 -70 -113 -50 -67 -89 -142 -90 -170 0 -8 9 -21 21 -28 16 -10 19 -19 14
-45 -11 -56 -14 -62 -37 -72 -28 -12 -39 -75 -14 -75 11 0 16 -10 17 -32 l1
-33 7 30 c6 23 3 34 -11 45 -27 23 -14 50 24 50 27 0 30 -3 26 -25 -3 -13 -1
-22 3 -19 5 3 9 15 9 27 0 16 3 18 12 9 19 -19 47 -14 73 13 17 16 25 20 25
10 0 -8 5 -15 11 -15 5 0 8 -4 5 -9 -4 -5 3 -7 14 -4 11 3 20 0 20 -6 0 -6 3
-10 8 -10 20 3 23 -3 11 -18 -11 -13 -11 -15 -1 -9 19 11 56 -30 47 -52 -5
-14 -4 -15 6 -5 10 10 19 8 41 -14 15 -15 28 -32 28 -39 0 -7 -19 -27 -42 -46
-58 -45 -72 -58 -59 -58 22 0 26 2 23 12 -4 14 31 5 36 -9 2 -8 -5 -13 -15
-13 -11 0 -25 -6 -32 -12 -11 -10 -13 -10 -7 0 4 6 2 12 -4 12 -6 0 -18 17
-27 38 -19 46 -41 72 -62 72 -12 0 -9 -6 10 -23 32 -28 52 -85 50 -149 0 -40
2 -48 17 -48 10 0 23 5 30 12 17 17 15 2 -4 -27 -17 -26 -43 -31 -101 -19 -24
5 -29 10 -26 28 9 44 -49 59 -60 15 -3 -10 -12 -19 -21 -19 -9 0 -16 -6 -16
-12 0 -7 -13 2 -29 20 -44 47 -101 43 -243 -19 -64 -28 -69 -29 -97 -14 -42
21 -54 19 -85 -16 -15 -17 -30 -28 -33 -25 -4 3 -7 29 -9 58 -2 44 1 56 19 71
l22 18 -22 -11 c-38 -18 -29 17 10 40 33 21 31 28 -4 10 -20 -11 -28 3 -9 15
6 4 8 10 5 15 -3 5 7 18 21 29 15 12 21 21 13 21 -10 1 -8 5 5 15 15 12 16 15
5 15 -17 0 -37 -18 -70 -63 -27 -35 -36 -29 -15 11 l15 29 -40 18 c-32 15 -37
20 -24 27 8 5 13 13 10 18 -3 4 15 16 40 25 24 10 47 26 50 36 3 10 24 26 46
35 25 12 39 24 39 36 0 10 11 24 25 30 14 6 25 15 25 20 0 4 5 8 10 8 6 0 10
-7 10 -15 0 -8 9 -15 19 -15 19 0 19 -2 -4 -52 -13 -29 -26 -67 -30 -85 -6
-28 -4 -32 22 -37 15 -3 78 -7 138 -10 127 -6 87 8 -57 20 -95 7 -100 12 -78
68 8 21 14 24 42 20 21 -3 40 0 53 9 17 13 20 12 32 -10 7 -14 13 -39 14 -57
l1 -31 15 35 c8 19 24 45 35 56 19 22 18 30 -10 74 -2 2 -6 0 -10 -5 -4 -6
-18 -16 -31 -23 -19 -11 -25 -11 -31 -1 -5 7 -20 17 -35 23 l-27 11 41 46 c39
44 40 47 29 84 -9 26 -33 56 -81 98 -102 91 -127 151 -106 258 8 42 23 76 46
106 40 52 23 54 -19 2 -33 -41 -62 -148 -53 -195 3 -20 2 -34 -4 -34 -5 0 -17
-3 -26 -7 -14 -5 -16 -2 -10 18 7 23 5 22 -26 -7 -55 -51 -149 -104 -149 -84
0 5 22 31 49 59 27 28 44 51 36 51 -8 0 -16 -4 -19 -8 -8 -13 -196 -86 -202
-79 -4 4 -1 13 6 22 17 20 133 96 198 129 56 28 70 42 25 25 -16 -6 -52 -20
-81 -31 -29 -11 -50 -23 -47 -28 3 -5 -12 -18 -32 -31 -55 -32 -93 -70 -93
-91 0 -25 21 -23 102 13 76 33 94 32 60 -4 -58 -61 0 -63 92 -2 38 25 70 45
72 45 9 0 -13 -48 -28 -58 -10 -7 -18 -20 -18 -28 0 -20 -54 -74 -74 -74 -16
0 -23 -35 -8 -44 4 -2 29 2 55 11 37 12 47 20 47 37 0 12 9 25 23 31 16 7 21
18 20 38 -1 17 3 27 12 27 8 0 19 9 26 21 10 20 12 20 34 -14 13 -19 48 -55
77 -80 l53 -46 -27 -26 c-32 -30 -34 -40 -12 -53 12 -7 4 -15 -38 -41 -29 -18
-71 -49 -93 -68 -90 -77 -153 -124 -198 -148 -45 -24 -55 -45 -21 -45 22 0 17
-17 -22 -89 -38 -69 -78 -171 -69 -179 2 -3 9 8 15 24 15 42 29 70 74 152 34
61 44 72 66 72 l26 0 -39 -78 c-27 -56 -40 -97 -44 -140 -3 -34 -11 -62 -16
-62 -8 0 -8 -3 -1 -10 6 -6 34 -11 62 -11 29 -1 52 -3 52 -4 0 -2 -10 -14 -21
-27 -20 -22 -27 -24 -76 -17 -67 9 -100 30 -106 66 -3 23 -4 22 -6 -9 -2 -52
44 -79 136 -82 42 -1 68 -6 71 -14 2 -7 21 -12 45 -12 48 0 41 -10 -25 -35
-49 -18 -53 -22 -40 -41 9 -14 45 -27 37 -14 -3 6 0 10 9 10 8 0 16 -5 18 -11
3 -9 9 -9 25 0 33 17 61 14 59 -6 -1 -22 20 -24 159 -13 l100 7 -112 2 c-62 0
-115 5 -118 11 -3 6 4 10 16 10 12 0 20 2 17 5 -6 7 -59 12 -133 15 -33 1 -53
4 -45 7 8 3 42 19 75 36 33 16 80 36 105 43 l45 14 -58 -5 c-39 -4 -69 0 -94
10 l-37 16 25 22 c27 26 128 62 204 73 45 7 47 8 20 13 l-30 6 45 17 c91 33
160 31 160 -5 0 -9 -19 -12 -67 -11 -56 2 -60 1 -23 -4 l45 -7 -75 -14 c-41
-7 -83 -18 -92 -23 -19 -9 -25 -38 -8 -38 7 0 7 -7 -1 -21 -17 -32 4 -41 94
-36 42 2 77 1 77 -2 0 -4 -12 -14 -28 -23 -15 -9 -36 -26 -47 -38 l-20 -22 36
21 c20 12 49 33 63 46 44 41 65 49 93 34 l24 -13 -68 -68 c-37 -37 -63 -68
-57 -68 6 0 19 9 29 20 10 11 22 20 27 20 12 0 53 44 50 53 -1 4 19 17 45 29
27 11 49 24 51 27 1 4 18 5 37 3 19 -2 33 -7 31 -11 -3 -4 29 -5 70 -3 41 2
80 -1 87 -6 7 -6 41 -10 77 -9 36 1 57 3 48 5 -19 4 -25 22 -7 22 7 0 9 30 7
85 -2 47 -7 85 -11 85 -4 0 -2 10 4 23 11 20 11 21 -5 8 -15 -13 -19 -13 -26
0 -6 9 -1 23 18 43 l27 30 -27 -17 c-31 -19 -38 -21 -38 -9 0 5 11 15 25 22
14 7 25 17 25 21 0 12 -33 -2 -46 -19 -14 -19 -29 -9 -42 28 -8 21 -8 32 0 36
6 4 8 3 5 -3 -10 -16 16 -23 34 -9 10 7 14 18 9 30 -5 14 -9 16 -14 7 -5 -7
-15 -10 -23 -7 -9 4 -22 1 -30 -5 -19 -16 -29 -3 -12 17 12 14 9 21 -26 50
l-40 33 50 48 c52 49 48 48 -21 -4 -37 -30 -41 -30 -51 -13 -10 14 -7 22 13
41 13 12 27 19 31 15 5 -4 -1 -14 -11 -22 -11 -7 -18 -16 -15 -18 2 -2 26 12
52 31 26 20 45 38 42 41 -3 3 -11 0 -17 -6 -7 -7 -19 -12 -27 -12 -11 0 -10 4
5 16 18 14 18 14 -6 3 -14 -6 -40 -23 -58 -36 l-33 -25 -24 22 c-19 18 -21 25
-12 44 12 24 54 49 62 36 3 -4 -6 -15 -20 -24 -25 -17 -33 -36 -15 -36 6 0 10
6 10 14 0 8 9 17 19 21 24 7 36 36 19 47 -22 13 -32 9 -73 -28 -22 -20 -31
-31 -21 -23 17 12 19 12 15 0 -10 -28 -28 -22 -54 19 -15 23 -39 49 -56 58
-16 10 -29 24 -29 32 0 8 -11 27 -25 42 l-26 28 42 66 c34 53 44 63 51 50 5
-9 16 -16 23 -16 9 0 15 -10 15 -25 0 -21 5 -25 28 -25 26 0 28 -3 24 -32 -5
-31 -4 -31 31 -25 25 4 37 2 41 -9 6 -16 15 -17 35 -5 19 12 4 51 -20 51 -10
0 -19 4 -19 10 0 5 -10 12 -23 15 -13 4 -29 20 -37 38 -7 18 -15 34 -17 37 -2
3 28 4 66 2 62 -4 70 -2 75 16 4 11 5 26 4 33 -2 9 17 12 83 10 56 -2 89 1 94
9 4 6 -2 29 -13 50 l-19 40 108 -3 c89 -2 111 1 125 14 12 13 14 21 5 37 -13
25 -32 32 -108 39 l-63 6 24 22 c17 15 23 30 19 43 -10 39 -50 55 -152 60
-110 6 -103 13 40 37 107 19 125 26 116 49 -5 13 -26 16 -129 16 -68 -1 -159
-7 -203 -15 -107 -19 -108 -19 -50 14 61 35 79 55 71 77 -5 14 -15 15 -56 10
l-50 -7 21 36 c18 30 19 36 6 41 -18 7 -80 -9 -132 -35 -22 -11 -42 -17 -44
-15 -2 2 28 37 67 78 40 41 72 79 72 85 0 21 -35 11 -92 -27z m279 -1304 c13
-12 23 -30 23 -40 0 -10 4 -18 9 -18 31 0 104 -211 81 -234 -13 -13 -188 -15
-271 -3 -50 7 -56 11 -52 28 3 11 0 19 -6 19 -9 0 -9 5 0 21 10 20 17 21 97
16 48 -3 98 -9 111 -13 16 -5 22 -4 18 4 -4 5 -26 13 -49 17 l-42 7 29 24 c17
14 24 24 16 24 -11 0 -9 4 5 15 17 13 16 14 -16 5 -30 -8 -32 -7 -18 4 26 19
9 29 -19 11 -34 -23 -27 -4 11 27 l32 27 24 -44 c24 -44 24 -45 5 -60 -19 -16
-19 -16 3 -5 19 9 22 8 22 -8 0 -11 7 -25 15 -32 11 -9 15 -9 15 -1 0 18 -56
138 -80 172 -18 24 -19 33 -10 44 16 19 19 19 47 -7z m-333 -201 c12 -9 17
-23 14 -47 -2 -29 -8 -36 -28 -38 -14 -2 -30 -8 -35 -12 -16 -13 -181 -24
-189 -12 -13 22 29 36 127 41 82 5 102 9 102 21 0 8 -7 15 -16 14 -173 -12
-222 -13 -209 -5 19 12 123 31 167 31 18 0 33 5 33 10 0 14 13 13 34 -3z"/>
<path d="M2806 3188 c-2 -7 -9 -69 -15 -138 -49 -553 -112 -1073 -152 -1262
l-11 -51 -99 6 c-55 3 -101 1 -105 -4 -3 -5 59 -9 148 -9 84 -1 195 -3 246 -5
51 -2 92 1 92 6 0 5 -13 9 -30 9 -16 0 -30 5 -30 11 0 14 83 170 112 212 11
15 18 32 16 37 -3 10 -129 -195 -143 -232 -6 -16 -34 -32 -42 -24 -2 2 37 76
87 165 51 88 90 166 88 172 -2 7 -42 -55 -88 -137 -115 -204 -114 -204 -157
-204 -35 0 -36 0 -30 38 70 475 89 611 98 680 5 46 18 143 29 216 11 73 24
177 30 232 6 54 13 123 16 153 l7 53 41 -5 c133 -18 141 -18 161 -4 11 9 17
19 13 23 -4 4 -14 1 -22 -5 -11 -9 -33 -10 -86 -2 -40 5 -78 7 -86 4 -9 -3
-14 2 -14 14 0 44 -64 87 -74 51z m51 -20 c7 -9 0 -85 -22 -233 -18 -121 -37
-263 -43 -315 -6 -52 -22 -180 -36 -285 -78 -582 -83 -611 -101 -593 -5 5 26
226 64 448 19 114 60 488 81 750 17 207 21 240 35 240 7 0 17 -6 22 -12z"/>
<path d="M1913 2993 c-7 -2 -13 -13 -13 -22 0 -10 -7 -32 -15 -48 -19 -39 -7
-71 36 -95 28 -17 29 -17 29 4 0 12 3 18 6 15 10 -10 40 34 46 67 4 18 1 35
-7 43 -7 7 -15 18 -17 25 -4 10 -9 10 -23 -2 -17 -14 -18 -13 -12 3 6 17 -5
21 -30 10z"/>
<path d="M1398 2845 c-127 -27 -414 -146 -410 -170 3 -20 42 -16 140 14 113
35 143 39 92 11 -60 -32 -104 -75 -97 -93 9 -23 36 -21 72 4 17 12 22 18 12
15 -11 -3 -30 -9 -44 -12 -23 -6 -24 -5 -14 14 23 43 196 132 294 152 24 4 32
8 18 9 -28 1 -99 -17 -295 -75 -82 -24 -151 -42 -154 -40 -9 9 164 88 266 123
74 25 132 37 190 41 45 3 82 9 82 13 0 13 -85 9 -152 -6z"/>
<path d="M1987 2783 c-2 -5 -7 -24 -11 -45 -11 -63 -106 -135 -146 -110 -10 6
-21 8 -25 4 -3 -4 -28 -8 -54 -9 -40 -1 -53 3 -77 26 -35 33 -59 67 -59 84 0
7 -6 12 -12 12 -7 0 -13 -4 -13 -10 0 -20 64 -108 124 -171 57 -59 65 -65 92
-58 44 10 62 22 81 52 9 15 36 52 60 83 24 30 43 64 43 75 0 11 7 29 15 40 18
24 19 34 1 34 -8 0 -17 -3 -19 -7z"/>
<path d="M2013 2353 c4 -7 61 -12 144 -12 76 -1 142 -6 147 -11 6 -6 20 -10
33 -10 15 0 28 -10 37 -28 24 -47 48 -155 43 -194 -3 -21 -2 -38 3 -38 4 0 6
-17 4 -37 -8 -94 -13 -243 -8 -243 3 0 13 8 22 17 16 16 17 16 20 0 2 -9 10
-17 18 -17 8 0 12 -4 9 -10 -3 -5 1 -10 9 -10 9 0 16 8 16 19 0 11 6 22 13 24
9 4 9 6 -1 6 -8 1 -10 6 -6 13 4 6 8 25 10 42 1 17 5 41 9 53 5 16 3 25 -9 29
-13 5 -14 9 -5 20 9 11 8 14 -3 14 -21 0 -58 -29 -58 -47 0 -12 3 -13 14 -4
10 8 16 9 21 1 3 -5 -1 -13 -10 -16 -8 -4 -22 -18 -31 -33 -15 -25 -15 -25
-11 23 4 34 11 52 23 59 10 6 34 26 53 44 31 30 32 33 12 33 -12 0 -33 -7 -47
-16 -13 -9 -27 -14 -30 -11 -3 3 16 17 43 31 41 21 44 25 23 26 -23 1 -23 2
-5 10 17 7 17 9 3 9 -17 1 -27 21 -10 21 4 0 9 11 10 25 1 14 -4 25 -10 25 -7
0 -3 7 8 15 30 23 -5 19 -45 -6 -18 -11 -35 -18 -38 -15 -3 2 -6 27 -6 54 -1
28 -5 48 -9 45 -5 -2 -8 -2 -8 1 0 3 15 12 32 19 29 12 35 11 51 -4 64 -59 81
-216 50 -453 -4 -33 -3 -47 4 -43 6 4 16 46 23 94 15 102 8 256 -14 328 -21
69 -78 123 -148 142 -66 18 -404 31 -395 16z"/>
<path d="M1400 2314 c-148 -20 -173 -28 -187 -61 -46 -105 -71 -218 -80 -360
-9 -154 11 -127 25 35 11 130 31 224 65 303 l16 36 124 21 c68 12 152 22 188
22 35 0 71 5 79 10 22 14 -104 11 -230 -6z"/>
<path d="M3187 2261 c-22 -11 -65 -20 -108 -23 -63 -3 -74 -7 -95 -31 -28 -32
-29 -41 -11 -59 22 -22 87 -364 87 -459 0 -28 -10 -69 -24 -101 l-24 -55 26 5
c23 4 25 3 15 -9 -10 -13 -8 -15 17 -13 16 1 33 5 39 9 6 3 17 3 24 -2 6 -4
38 -6 70 -5 52 3 57 1 57 -18 0 -13 10 -24 26 -30 38 -15 22 -27 -43 -32 -70
-7 -135 -35 -131 -58 3 -13 20 -14 105 -12 124 4 149 -6 67 -27 -39 -11 -59
-21 -59 -31 0 -30 65 -39 297 -39 272 -1 358 12 342 52 -8 23 -27 26 -174 35
l-125 7 3 38 c3 35 2 37 -27 37 -23 0 -31 5 -31 18 0 15 -16 23 -77 38 l-78
19 100 8 c55 4 118 9 140 11 80 6 76 1 49 55 -21 44 -22 56 -14 103 5 29 13
76 18 103 6 42 11 49 27 47 68 -12 70 -11 68 41 -1 34 -10 61 -29 90 -26 40
-27 43 -15 102 23 118 23 121 7 134 -16 14 -100 26 -246 37 -47 4 -95 13 -107
20 -32 20 -122 18 -166 -5z m155 -18 c15 -15 28 -33 28 -40 0 -9 8 -11 23 -8
15 4 28 1 36 -9 16 -19 6 -36 -22 -36 -18 0 -19 2 -7 10 13 8 12 10 -4 10 -41
0 -76 -73 -76 -158 0 -52 11 -75 57 -124 34 -35 35 -36 15 -47 -61 -33 -103
13 -122 134 -7 44 -8 46 -9 14 -1 -32 14 -93 33 -140 5 -12 -1 -20 -23 -29
-46 -19 -61 -2 -62 74 l-1 61 -12 -53 c-9 -43 -17 -57 -40 -69 l-28 -15 6 59
c4 32 3 97 -2 144 -16 152 7 216 87 237 64 17 93 14 123 -15z m168 -24 c0 -7
18 -8 53 -4 56 6 138 -12 145 -33 7 -21 -46 -32 -153 -32 -102 0 -103 0 -109
25 -5 18 -15 27 -36 32 -52 10 -32 23 35 23 40 0 65 -4 65 -11z m-439 -65 l36
-6 8 -97 c10 -123 10 -137 0 -188 -6 -36 -5 -44 10 -49 10 -4 27 -2 38 5 11 7
22 9 26 4 3 -4 19 -15 34 -22 25 -13 32 -13 60 2 22 12 43 15 64 11 26 -5 37
-1 58 20 l26 26 -35 35 c-54 53 -69 89 -61 144 3 26 9 52 13 58 5 7 65 12 170
15 157 3 162 2 162 -17 -1 -26 -36 -194 -42 -201 -10 -9 -120 117 -114 131 13
35 -16 55 -58 39 -27 -10 -18 -33 19 -48 19 -8 35 -19 35 -24 0 -5 26 -37 58
-71 l58 -62 -8 -72 c-5 -40 -13 -90 -19 -111 -9 -32 -7 -45 7 -72 10 -18 16
-36 12 -39 -24 -24 -371 -40 -498 -22 -71 10 -89 20 -74 44 13 20 10 20 149 3
114 -14 338 -1 359 20 9 10 6 11 -14 6 -50 -15 -353 -17 -410 -4 l-55 13 -12
110 c-7 61 -25 174 -41 253 -28 134 -28 142 -11 142 29 0 22 18 -8 23 -27 4
-27 4 -3 5 14 1 41 -1 61 -4z m282 -656 c12 -6 27 -18 34 -27 11 -14 12 -14
13 2 0 17 20 25 20 8 0 -4 10 -6 23 -4 27 4 52 -11 43 -26 -4 -6 -17 -11 -29
-11 -12 0 -29 -5 -37 -10 -11 -7 -8 -10 16 -10 16 0 35 -5 42 -12 9 -9 12 -9
12 1 0 7 8 11 18 9 9 -1 22 1 29 5 17 11 26 -9 13 -32 -15 -29 -12 -41 8 -41
10 0 22 -3 25 -7 4 -3 54 -6 112 -5 58 1 118 -4 133 -10 l27 -11 -40 -12 c-22
-7 -61 -14 -87 -17 -40 -5 -48 -3 -49 11 -1 13 -2 13 -6 -1 -5 -20 -39 -22
-155 -11 -64 6 -68 7 -69 32 l-2 26 -4 -27 c-5 -34 -32 -38 -34 -5 l-2 22 -4
-22 c-4 -21 -10 -23 -66 -23 -100 0 -117 29 -26 44 21 3 41 11 45 17 15 24
-17 32 -122 30 -67 -1 -104 1 -100 8 10 15 75 34 102 28 13 -2 24 -1 24 4 0 4
15 9 32 11 42 4 50 33 14 49 -14 7 -26 16 -26 21 0 12 48 10 73 -4z"/>
<path d="M738 1723 c-43 -2 -78 -8 -78 -13 0 -10 -87 -104 -240 -262 l-75 -77
-103 6 c-71 4 -102 10 -102 18 0 19 -26 25 -45 11 -29 -21 -15 -51 25 -54 69
-5 170 -24 170 -32 0 -12 -209 -209 -252 -237 -42 -28 -45 -39 -7 -24 23 8
190 156 256 227 18 19 40 34 50 34 79 -1 93 -58 30 -127 -26 -29 -14 -29 25
-2 l30 22 -17 -33 c-25 -48 -11 -47 20 2 17 28 24 34 20 18 -4 -14 -11 -29
-16 -34 -10 -11 -12 -33 -2 -23 3 4 12 2 20 -4 10 -9 17 -8 28 1 8 7 15 9 15
4 0 -4 7 1 15 12 13 17 14 17 15 2 0 -21 26 -24 33 -5 4 8 6 7 7 -3 1 -8 7 3
15 25 l13 40 2 -45 c2 -28 4 -36 7 -21 l5 24 24 -28 24 -28 0 56 c0 31 5 59
10 62 6 4 10 -13 10 -44 0 -27 5 -53 11 -57 8 -4 9 6 5 37 -5 41 -5 42 5 14
15 -39 28 -55 46 -55 12 0 12 3 -1 22 -17 24 -22 78 -7 78 5 0 11 -17 15 -38
3 -21 15 -47 27 -58 l21 -19 -6 40 c-6 37 -5 38 5 12 10 -24 32 -35 30 -14 -1
4 -1 17 -1 30 0 16 -3 18 -9 9 -7 -11 -10 -10 -15 3 -10 26 -7 32 14 38 16 4
20 0 20 -19 0 -30 26 -84 41 -84 6 0 7 5 3 11 -4 8 1 9 16 4 22 -7 22 -6 6 16
-9 13 -16 28 -16 34 0 5 5 2 11 -7 12 -22 39 -24 39 -3 0 8 7 15 16 15 14 0
14 2 0 22 -9 12 -16 30 -16 38 0 19 -39 64 -48 55 -3 -3 0 -11 6 -17 19 -19
15 -25 -20 -32 -21 -4 -35 -2 -41 6 -7 10 -10 10 -14 1 -8 -20 -53 -16 -53 5
0 13 -2 14 -9 3 -13 -21 -171 -5 -172 18 0 10 -2 11 -6 4 -6 -17 -36 -16 -92
1 -57 16 -66 36 -17 36 27 0 36 -4 36 -17 0 -13 3 -14 12 -5 16 16 75 15 82 0
5 -10 7 -10 12 0 6 13 44 17 44 4 0 -8 148 -8 156 1 6 6 -256 30 -351 31 -52
1 -80 6 -80 13 0 6 47 60 105 121 58 60 129 135 158 166 l53 56 182 1 c100 1
211 5 247 9 68 7 -226 9 -382 3z"/>
<path d="M1080 1661 c0 -5 5 -13 10 -16 21 -13 9 -25 -31 -31 -27 -5 -36 -10
-27 -15 10 -7 8 -9 -7 -10 -11 0 -14 -3 -7 -6 19 -8 14 -23 -9 -23 -11 0 -17
5 -14 10 7 11 -9 13 -40 4 -17 -4 -20 -12 -17 -47 4 -62 11 -87 23 -87 7 0 9
11 6 29 -8 41 2 45 35 14 25 -24 31 -26 49 -15 11 7 29 10 40 7 23 -7 25 7 4
25 -8 7 -15 17 -15 23 0 5 8 2 19 -7 20 -18 31 -19 100 -10 l45 6 -35 19 c-32
17 -33 18 -9 19 20 1 17 5 -18 17 -34 12 -44 21 -49 44 -5 26 -53 71 -53 50z"/>
<path d="M939 1656 c-3 -3 -58 -7 -124 -10 -106 -5 -122 -8 -137 -27 -10 -12
-18 -35 -18 -51 0 -22 -10 -40 -37 -64 -20 -19 -41 -34 -45 -34 -4 0 -8 -4 -8
-10 0 -18 19 -11 56 23 31 26 35 28 23 8 -32 -54 -38 -66 -34 -70 3 -2 13 3
23 12 23 21 33 22 26 3 -3 -8 -1 -17 5 -20 5 -4 13 3 16 14 5 16 10 18 19 11
7 -6 16 -8 19 -4 4 3 7 0 7 -8 0 -8 10 6 21 31 11 25 18 55 16 68 -2 12 0 22
6 22 6 0 7 -19 3 -50 -5 -38 -3 -54 8 -65 24 -24 36 -17 37 23 l1 37 10 -34
c11 -39 23 -32 32 19 7 42 -8 74 -24 50 -8 -12 -10 -11 -10 8 0 21 -4 22 -75
22 -43 0 -75 4 -75 10 0 6 38 10 93 11 50 1 117 4 147 9 32 4 -5 5 -87 2 -100
-4 -143 -2 -143 6 0 17 9 20 135 32 65 6 137 15 159 20 l41 8 -41 1 c-22 1
-43 -1 -45 -3z"/>
<path d="M4407 1581 l-79 -6 -79 -82 c-43 -45 -79 -88 -79 -94 0 -8 5 -7 17 2
14 12 16 12 11 -1 -2 -8 -14 -19 -26 -25 -31 -14 -27 -34 8 -41 17 -4 30 -11
30 -16 0 -5 5 -6 11 -3 6 4 36 4 67 0 43 -6 52 -9 37 -16 -29 -11 -6 -11 35 1
25 7 36 7 43 -3 6 -9 7 -8 5 3 -3 10 -32 19 -96 30 -51 8 -92 17 -92 21 0 4
57 7 126 7 69 0 128 3 131 6 4 3 -55 6 -130 6 -110 0 -137 3 -137 14 0 7 35
48 77 90 57 55 85 76 103 75 14 0 82 -6 153 -12 70 -7 127 -9 127 -6 0 4 -41
12 -92 18 -51 7 -94 14 -97 17 -2 2 27 4 65 5 38 0 78 4 89 9 23 10 -102 10
-228 1z"/>
<path d="M2000 1459 c-96 -5 -357 -12 -580 -17 l-405 -7 -7 -125 c-4 -68 -9
-133 -12 -143 -8 -33 3 -47 35 -40 16 3 29 2 29 -3 0 -5 71 -8 157 -6 148 3
156 3 142 -14 -13 -16 -13 -17 11 -2 20 12 62 16 198 17 121 2 172 -1 167 -8
-8 -13 7 -15 21 -2 13 12 466 23 459 11 -4 -6 2 -7 17 -1 35 13 311 14 303 1
-3 -5 -2 -10 4 -10 5 0 13 5 16 10 9 14 75 13 75 -1 0 -8 4 -8 14 0 9 7 73 14
167 17 84 3 156 7 160 10 4 2 10 17 14 33 4 21 15 33 37 40 20 7 28 16 25 25
-3 8 -13 54 -22 103 -9 49 -20 96 -25 103 -8 13 -73 15 -417 16 -224 1 -487
-2 -583 -7z m973 -16 c9 -5 8 -219 -2 -253 -6 -21 -15 -26 -61 -32 -121 -16
-1846 -27 -1883 -12 -15 6 -17 13 -11 48 4 22 8 80 8 128 1 47 4 89 8 93 3 4
192 11 420 16 227 6 571 14 763 19 324 7 740 4 758 -7z"/>
<path d="M4750 1292 c0 -5 10 -17 21 -28 26 -23 156 -177 188 -222 14 -21 20
-37 14 -43 -6 -6 -105 -3 -259 6 -170 11 -406 15 -744 15 -272 -1 -612 4 -755
10 -161 7 -523 11 -950 8 -379 -1 -814 -1 -965 1 -151 1 -272 0 -268 -4 4 -4
107 -10 230 -13 282 -6 177 -7 958 1 454 4 722 3 820 -4 80 -6 451 -12 825
-14 378 -2 736 -8 805 -14 69 -6 167 -11 218 -11 72 0 92 -3 92 -14 0 -9 -15
-16 -42 -19 -74 -9 -958 0 -1308 13 -412 15 -1534 17 -1765 3 -112 -7 -342 -8
-675 -3 -463 8 -923 1 -1086 -16 l-62 -7 -4 39 c-3 22 -3 42 -1 47 2 4 220 7
484 7 345 0 479 3 479 11 0 13 -973 9 -986 -4 -4 -4 -2 -32 5 -62 l13 -56 61
6 c34 3 81 8 104 11 24 3 43 1 43 -3 0 -5 -9 -49 -20 -99 -11 -49 -31 -179
-45 -289 -14 -110 -39 -257 -55 -327 -37 -159 -37 -165 -3 -169 16 -2 258 -3
538 -2 2425 12 3178 4 3858 -38 104 -6 191 -9 194 -5 8 7 -14 394 -38 661 -10
121 -19 230 -19 243 0 22 0 22 128 16 70 -3 147 -2 172 3 41 8 45 11 47 38 5
49 -26 100 -132 220 -94 107 -115 126 -115 107z m-1310 -343 c69 -5 364 -12
657 -16 l532 -6 5 -41 c17 -130 27 -254 42 -538 10 -175 15 -320 12 -323 -3
-3 -111 -1 -239 6 -129 7 -290 13 -359 15 -69 1 -233 7 -365 13 -132 6 -630
10 -1107 10 -476 0 -889 3 -917 7 -41 5 -49 9 -40 20 6 7 9 19 6 26 -3 8 -10
2 -17 -14 -13 -27 -15 -28 -99 -29 -47 0 -106 -3 -130 -6 -30 -3 -41 -2 -37 6
4 6 2 11 -3 11 -6 0 -11 -5 -11 -11 0 -12 -383 -9 -395 3 -4 3 -2 16 5 27 6
13 7 21 1 21 -11 0 -26 -39 -23 -58 2 -7 -8 -12 -24 -12 -25 0 -26 1 -12 18 9
9 19 28 22 42 l7 25 -17 -22 c-18 -25 -40 -30 -47 -10 -3 6 -11 -3 -18 -20 -8
-18 -19 -33 -26 -33 -13 0 -8 25 10 48 21 26 -3 23 -28 -4 l-25 -29 6 30 c5
29 5 29 -10 11 -9 -11 -16 -27 -16 -36 0 -21 -10 -31 -22 -24 -5 3 -4 12 3 20
9 11 8 18 -1 29 -12 14 -15 13 -32 -5 -10 -11 -23 -20 -29 -20 -15 0 7 36 33
54 12 9 19 18 16 21 -3 3 -20 -6 -38 -21 -23 -20 -31 -33 -27 -51 4 -22 1 -23
-44 -23 -54 0 -58 6 -29 43 11 14 20 29 20 34 0 4 -7 -1 -16 -12 -12 -17 -16
-18 -24 -5 -7 12 -12 12 -29 -4 -11 -10 -23 -27 -26 -37 -4 -11 -13 -19 -21
-19 -19 0 -18 7 6 37 11 15 18 28 15 31 -3 3 -12 -3 -19 -14 -37 -50 -45 -58
-51 -52 -10 9 21 75 38 81 6 3 -2 6 -20 6 -17 1 -35 -4 -39 -11 -4 -6 -3 -8 4
-4 19 11 22 -11 6 -43 -13 -26 -21 -31 -53 -31 -21 0 -40 3 -44 6 -8 9 31 84
43 84 16 0 12 -12 -11 -36 -23 -24 -18 -44 9 -44 14 0 15 2 2 10 -12 8 -11 14
9 40 15 21 20 35 13 42 -17 17 -50 -9 -71 -58 -13 -28 -26 -44 -33 -41 -7 2
-12 8 -12 13 1 5 4 23 7 40 5 27 3 31 -15 30 -22 -1 -70 -66 -49 -66 6 0 11 5
11 10 0 6 7 10 15 10 8 0 15 -8 15 -18 0 -14 -8 -18 -40 -19 -22 0 -40 2 -40
6 0 3 9 21 20 39 26 42 25 45 -4 38 -15 -4 -26 -1 -28 6 -4 12 -33 -13 -71
-63 l-18 -24 4 30 c2 17 16 86 30 155 14 69 36 199 47 290 22 170 51 325 69
371 9 24 17 28 71 34 34 4 394 4 799 1 405 -3 795 -2 866 3 175 11 1288 12
1445 0z"/>
</g>
</svg>
